<?xml version="1.0" encoding="utf-8"?>
<!-- Generator: Adobe Illustrator 18.0.0, SVG Export Plug-In . SVG Version: 6.00 Build 0)  -->
<!DOCTYPE svg PUBLIC "-//W3C//DTD SVG 1.1//EN" "http://www.w3.org/Graphics/SVG/1.1/DTD/svg11.dtd">
<svg version="1.1" id="Capa_1" xmlns="http://www.w3.org/2000/svg" xmlns:xlink="http://www.w3.org/1999/xlink" x="0px" y="0px"
	 viewBox="0 0 35.7 38.9" enable-background="new 0 0 35.7 38.9" xml:space="preserve">
<g>
	<path fill="#FFFFFF" d="M35,29.1l-0.4-0.2c-3.8-2-4.4-4.7-4.5-5.7l0-8.8c-0.5-5.5-4.5-9.9-9.8-11V3.1c0-1.4-1.1-2.5-2.5-2.5
		c-1.4,0-2.5,1.1-2.5,2.5v0.2C9.6,4.5,5.3,9.5,5.3,15.5c0,0.4,0.1,7,0.1,7.6c-0.1,1.4-0.9,3.9-4.4,5.8l-0.4,0.2v6h12
		c0.7,1.8,2.7,3.1,5.2,3.1c2.5,0,4.5-1.3,5.2-3.1h12L35,29.1L35,29.1z M33.5,33.5H2.1V30c3.8-2.2,4.7-5.2,4.8-6.8l0-0.1
		c0,0-0.1-7.3-0.1-7.6c0-6,4.9-10.9,10.9-10.9c5.7,0,10.3,4.2,10.8,9.8l0,8.8c0.1,1.3,0.9,4.4,4.9,6.7L33.5,33.5L33.5,33.5z"/>
</g>
</svg>
